<mxfile host="app.diagrams.net" modified="2021-08-17T03:50:17.208Z" agent="5.0 (Macintosh; Intel Mac OS X 10_15_7) AppleWebKit/537.36 (KHTML, like Gecko) Chrome/92.0.4515.131 Safari/537.36" etag="9alRy5hgnk465zyMQBfd" version="14.9.6" type="github">
  <diagram id="A1Nl1LmutE4I7G2CyRuD" name="Page-1">
    <mxGraphModel dx="1298" dy="808" grid="1" gridSize="10" guides="1" tooltips="1" connect="1" arrows="1" fold="1" page="1" pageScale="1" pageWidth="827" pageHeight="1169" math="0" shadow="0">
      <root>
        <mxCell id="0" />
        <mxCell id="1" parent="0" />
        <mxCell id="bPjozurzExnmXFlgTxyV-1" value="" style="rounded=0;whiteSpace=wrap;html=1;fillColor=#d5e8d4;strokeColor=#82b366;" parent="1" vertex="1">
          <mxGeometry x="110" y="347" width="510" height="100" as="geometry" />
        </mxCell>
        <mxCell id="bPjozurzExnmXFlgTxyV-2" value="Model Loader" style="rounded=0;whiteSpace=wrap;html=1;" parent="1" vertex="1">
          <mxGeometry x="110" y="167" width="150" height="60" as="geometry" />
        </mxCell>
        <mxCell id="bPjozurzExnmXFlgTxyV-3" value="NetBuilder" style="rounded=0;whiteSpace=wrap;html=1;" parent="1" vertex="1">
          <mxGeometry x="270" y="167" width="170" height="60" as="geometry" />
        </mxCell>
        <mxCell id="bPjozurzExnmXFlgTxyV-4" value="Primitive or other user interfaces ..." style="rounded=0;whiteSpace=wrap;html=1;dashed=1;fillColor=#f5f5f5;strokeColor=#666666;fontColor=#333333;" parent="1" vertex="1">
          <mxGeometry x="450" y="167" width="170" height="60" as="geometry" />
        </mxCell>
        <mxCell id="bPjozurzExnmXFlgTxyV-5" value="Compute" style="rounded=0;whiteSpace=wrap;html=1;" parent="1" vertex="1">
          <mxGeometry x="120" y="387" width="240" height="50" as="geometry" />
        </mxCell>
        <mxCell id="bPjozurzExnmXFlgTxyV-6" value="Schedule" style="rounded=0;whiteSpace=wrap;html=1;" parent="1" vertex="1">
          <mxGeometry x="370" y="387" width="240" height="20" as="geometry" />
        </mxCell>
        <mxCell id="bPjozurzExnmXFlgTxyV-7" value="CINN IR &amp;amp; Pass" style="rounded=0;whiteSpace=wrap;html=1;" parent="1" vertex="1">
          <mxGeometry x="110" y="457" width="510" height="50" as="geometry" />
        </mxCell>
        <mxCell id="bPjozurzExnmXFlgTxyV-8" value="CodeGen" style="rounded=0;whiteSpace=wrap;html=1;" parent="1" vertex="1">
          <mxGeometry x="110" y="516" width="510" height="53" as="geometry" />
        </mxCell>
        <mxCell id="bPjozurzExnmXFlgTxyV-9" style="edgeStyle=orthogonalEdgeStyle;rounded=0;orthogonalLoop=1;jettySize=auto;html=1;exitX=0.5;exitY=1;exitDx=0;exitDy=0;entryX=0.5;entryY=0;entryDx=0;entryDy=0;" parent="1" source="bPjozurzExnmXFlgTxyV-12" target="bPjozurzExnmXFlgTxyV-18" edge="1">
          <mxGeometry relative="1" as="geometry" />
        </mxCell>
        <mxCell id="bPjozurzExnmXFlgTxyV-10" style="edgeStyle=orthogonalEdgeStyle;rounded=0;orthogonalLoop=1;jettySize=auto;html=1;exitX=0.5;exitY=1;exitDx=0;exitDy=0;" parent="1" source="bPjozurzExnmXFlgTxyV-12" target="bPjozurzExnmXFlgTxyV-19" edge="1">
          <mxGeometry relative="1" as="geometry" />
        </mxCell>
        <mxCell id="bPjozurzExnmXFlgTxyV-11" style="edgeStyle=orthogonalEdgeStyle;rounded=0;orthogonalLoop=1;jettySize=auto;html=1;exitX=0.5;exitY=1;exitDx=0;exitDy=0;entryX=0.5;entryY=0;entryDx=0;entryDy=0;" parent="1" source="bPjozurzExnmXFlgTxyV-12" target="bPjozurzExnmXFlgTxyV-20" edge="1">
          <mxGeometry relative="1" as="geometry" />
        </mxCell>
        <mxCell id="bPjozurzExnmXFlgTxyV-12" value="CodeGenLLVM" style="rounded=0;whiteSpace=wrap;html=1;" parent="1" vertex="1">
          <mxGeometry x="110" y="577" width="240" height="50" as="geometry" />
        </mxCell>
        <mxCell id="bPjozurzExnmXFlgTxyV-13" style="edgeStyle=orthogonalEdgeStyle;rounded=0;orthogonalLoop=1;jettySize=auto;html=1;exitX=0.5;exitY=1;exitDx=0;exitDy=0;entryX=0.5;entryY=0;entryDx=0;entryDy=0;" parent="1" source="bPjozurzExnmXFlgTxyV-16" target="bPjozurzExnmXFlgTxyV-17" edge="1">
          <mxGeometry relative="1" as="geometry" />
        </mxCell>
        <mxCell id="bPjozurzExnmXFlgTxyV-14" style="edgeStyle=orthogonalEdgeStyle;rounded=0;orthogonalLoop=1;jettySize=auto;html=1;exitX=0.5;exitY=1;exitDx=0;exitDy=0;entryX=0.5;entryY=0;entryDx=0;entryDy=0;" parent="1" source="bPjozurzExnmXFlgTxyV-16" target="bPjozurzExnmXFlgTxyV-21" edge="1">
          <mxGeometry relative="1" as="geometry" />
        </mxCell>
        <mxCell id="bPjozurzExnmXFlgTxyV-15" style="edgeStyle=orthogonalEdgeStyle;rounded=0;orthogonalLoop=1;jettySize=auto;html=1;exitX=0.5;exitY=1;exitDx=0;exitDy=0;entryX=0.5;entryY=0;entryDx=0;entryDy=0;" parent="1" source="bPjozurzExnmXFlgTxyV-16" target="bPjozurzExnmXFlgTxyV-22" edge="1">
          <mxGeometry relative="1" as="geometry" />
        </mxCell>
        <mxCell id="bPjozurzExnmXFlgTxyV-16" value="CodeGenC" style="rounded=0;whiteSpace=wrap;html=1;" parent="1" vertex="1">
          <mxGeometry x="380" y="577" width="240" height="50" as="geometry" />
        </mxCell>
        <mxCell id="bPjozurzExnmXFlgTxyV-17" value="CUDA" style="rounded=0;whiteSpace=wrap;html=1;fillColor=#e1d5e7;strokeColor=#9673a6;" parent="1" vertex="1">
          <mxGeometry x="465" y="667" width="70" height="30" as="geometry" />
        </mxCell>
        <mxCell id="bPjozurzExnmXFlgTxyV-18" value="X86" style="rounded=0;whiteSpace=wrap;html=1;fillColor=#e1d5e7;strokeColor=#9673a6;" parent="1" vertex="1">
          <mxGeometry x="199.75" y="667" width="60.5" height="30" as="geometry" />
        </mxCell>
        <mxCell id="bPjozurzExnmXFlgTxyV-19" value="PTX" style="rounded=0;whiteSpace=wrap;html=1;dashed=1;fillColor=#f5f5f5;strokeColor=#666666;fontColor=#333333;" parent="1" vertex="1">
          <mxGeometry x="110" y="667" width="69" height="30" as="geometry" />
        </mxCell>
        <mxCell id="bPjozurzExnmXFlgTxyV-20" value="WASM" style="rounded=0;whiteSpace=wrap;html=1;dashed=1;fillColor=#f5f5f5;strokeColor=#666666;fontColor=#333333;" parent="1" vertex="1">
          <mxGeometry x="280" y="667" width="70" height="30" as="geometry" />
        </mxCell>
        <mxCell id="bPjozurzExnmXFlgTxyV-21" value="OpenCL" style="rounded=0;whiteSpace=wrap;html=1;dashed=1;fillColor=#f5f5f5;strokeColor=#666666;fontColor=#333333;" parent="1" vertex="1">
          <mxGeometry x="380" y="667" width="65" height="30" as="geometry" />
        </mxCell>
        <mxCell id="bPjozurzExnmXFlgTxyV-22" value="XPU..." style="rounded=0;whiteSpace=wrap;html=1;dashed=1;fillColor=#f5f5f5;strokeColor=#666666;fontColor=#333333;" parent="1" vertex="1">
          <mxGeometry x="550" y="667" width="70" height="30" as="geometry" />
        </mxCell>
        <mxCell id="bPjozurzExnmXFlgTxyV-23" value="autotune / autoschedule / rule" style="rounded=0;whiteSpace=wrap;html=1;dashed=1;fillColor=#f5f5f5;strokeColor=#666666;fontColor=#333333;" parent="1" vertex="1">
          <mxGeometry x="370" y="417" width="240" height="20" as="geometry" />
        </mxCell>
        <mxCell id="bPjozurzExnmXFlgTxyV-24" value="" style="rounded=0;whiteSpace=wrap;html=1;fillColor=#d5e8d4;strokeColor=#82b366;" parent="1" vertex="1">
          <mxGeometry x="110" y="237" width="510" height="100" as="geometry" />
        </mxCell>
        <mxCell id="bPjozurzExnmXFlgTxyV-25" value="GraphCompiler" style="rounded=0;whiteSpace=wrap;html=1;" parent="1" vertex="1">
          <mxGeometry x="118" y="277" width="240" height="50" as="geometry" />
        </mxCell>
        <mxCell id="bPjozurzExnmXFlgTxyV-26" value="Frontend &lt;br&gt;Instructions" style="rounded=0;whiteSpace=wrap;html=1;" parent="1" vertex="1">
          <mxGeometry x="366" y="277" width="120" height="50" as="geometry" />
        </mxCell>
        <mxCell id="bPjozurzExnmXFlgTxyV-27" value="Frontend &lt;br&gt;Pass" style="rounded=0;whiteSpace=wrap;html=1;" parent="1" vertex="1">
          <mxGeometry x="495" y="277" width="120" height="50" as="geometry" />
        </mxCell>
        <mxCell id="bPjozurzExnmXFlgTxyV-28" value="&lt;font face=&quot;Tahoma&quot;&gt;HLIR&lt;/font&gt;" style="text;html=1;strokeColor=none;fillColor=none;align=center;verticalAlign=middle;whiteSpace=wrap;rounded=0;" parent="1" vertex="1">
          <mxGeometry x="335" y="247" width="40" height="20" as="geometry" />
        </mxCell>
        <mxCell id="bPjozurzExnmXFlgTxyV-29" value="&lt;font face=&quot;Tahoma&quot;&gt;PE (Primitive Emitter)&lt;/font&gt;" style="text;html=1;strokeColor=none;fillColor=none;align=center;verticalAlign=middle;whiteSpace=wrap;rounded=0;" parent="1" vertex="1">
          <mxGeometry x="272.5" y="357" width="165" height="20" as="geometry" />
        </mxCell>
        <mxCell id="bPjozurzExnmXFlgTxyV-31" value="" style="shape=curlyBracket;whiteSpace=wrap;html=1;rounded=1;flipH=1;size=0.5;strokeWidth=2;strokeColor=#FF8000;" parent="1" vertex="1">
          <mxGeometry x="640" y="457" width="30" height="240" as="geometry" />
        </mxCell>
        <mxCell id="bPjozurzExnmXFlgTxyV-32" value="&lt;span style=&quot;font-weight: normal&quot;&gt;&lt;font style=&quot;font-size: 14px&quot;&gt;Backends abstraction&lt;/font&gt;&lt;/span&gt;" style="text;strokeColor=none;fillColor=none;html=1;fontSize=24;fontStyle=1;verticalAlign=middle;align=center;labelPosition=center;verticalLabelPosition=middle;horizontal=1;" parent="1" vertex="1">
          <mxGeometry x="700" y="553" width="100" height="40" as="geometry" />
        </mxCell>
        <mxCell id="bPjozurzExnmXFlgTxyV-33" value="" style="shape=curlyBracket;whiteSpace=wrap;html=1;rounded=1;flipH=1;size=0.5;strokeWidth=2;strokeColor=#FF8000;" parent="1" vertex="1">
          <mxGeometry x="640" y="237" width="30" height="100" as="geometry" />
        </mxCell>
        <mxCell id="bPjozurzExnmXFlgTxyV-34" value="&lt;span style=&quot;font-weight: normal&quot;&gt;&lt;font style=&quot;font-size: 14px&quot;&gt;Frontend abstraction&lt;/font&gt;&lt;/span&gt;" style="text;strokeColor=none;fillColor=none;html=1;fontSize=24;fontStyle=1;verticalAlign=middle;align=center;labelPosition=center;verticalLabelPosition=middle;horizontal=1;" parent="1" vertex="1">
          <mxGeometry x="700" y="264" width="100" height="40" as="geometry" />
        </mxCell>
        <mxCell id="bPjozurzExnmXFlgTxyV-35" value="" style="shape=curlyBracket;whiteSpace=wrap;html=1;rounded=1;flipH=1;size=0.5;strokeWidth=2;strokeColor=#FF8000;" parent="1" vertex="1">
          <mxGeometry x="640" y="347" width="30" height="100" as="geometry" />
        </mxCell>
        <mxCell id="bPjozurzExnmXFlgTxyV-36" value="&lt;span style=&quot;font-weight: normal&quot;&gt;&lt;font style=&quot;font-size: 14px&quot;&gt;Optimization&lt;/font&gt;&lt;/span&gt;" style="text;strokeColor=none;fillColor=none;html=1;fontSize=24;fontStyle=1;verticalAlign=middle;align=center;labelPosition=center;verticalLabelPosition=middle;horizontal=1;" parent="1" vertex="1">
          <mxGeometry x="690" y="374" width="100" height="40" as="geometry" />
        </mxCell>
        <mxCell id="bPjozurzExnmXFlgTxyV-37" value="" style="shape=curlyBracket;whiteSpace=wrap;html=1;rounded=1;flipH=1;size=0.5;strokeWidth=2;strokeColor=#FF8000;" parent="1" vertex="1">
          <mxGeometry x="640" y="120" width="30" height="107" as="geometry" />
        </mxCell>
        <mxCell id="bPjozurzExnmXFlgTxyV-38" value="&lt;span style=&quot;font-weight: normal&quot;&gt;&lt;font style=&quot;font-size: 14px&quot;&gt;User interface&lt;/font&gt;&lt;/span&gt;" style="text;strokeColor=none;fillColor=none;html=1;fontSize=24;fontStyle=1;verticalAlign=middle;align=center;labelPosition=center;verticalLabelPosition=middle;horizontal=1;" parent="1" vertex="1">
          <mxGeometry x="690" y="143.5" width="100" height="40" as="geometry" />
        </mxCell>
        <mxCell id="BWj54ylnb7tt94adcvDi-1" value="Python" style="rounded=0;whiteSpace=wrap;html=1;dashed=1;" vertex="1" parent="1">
          <mxGeometry x="110" y="118" width="150" height="40" as="geometry" />
        </mxCell>
        <mxCell id="BWj54ylnb7tt94adcvDi-2" value="C++" style="rounded=0;whiteSpace=wrap;html=1;dashed=1;" vertex="1" parent="1">
          <mxGeometry x="272.5" y="118" width="170" height="40" as="geometry" />
        </mxCell>
        <mxCell id="BWj54ylnb7tt94adcvDi-3" value="MLIR Dialect" style="rounded=0;whiteSpace=wrap;html=1;dashed=1;fillColor=#dae8fc;strokeColor=#6c8ebf;" vertex="1" parent="1">
          <mxGeometry x="450" y="118" width="170" height="40" as="geometry" />
        </mxCell>
        <mxCell id="BWj54ylnb7tt94adcvDi-5" value="&lt;font style=&quot;font-size: 24px&quot; face=&quot;Comic Sans MS&quot;&gt;&lt;b&gt;&lt;font color=&quot;#ff0000&quot;&gt;C&lt;/font&gt;&lt;/b&gt;ompiler &lt;font color=&quot;#ff0000&quot;&gt;&lt;b&gt;I&lt;/b&gt;&lt;/font&gt;&lt;font color=&quot;#0000cc&quot;&gt;nfrustrure&lt;/font&gt; for &lt;font color=&quot;#ff0000&quot;&gt;&lt;b&gt;N&lt;/b&gt;&lt;/font&gt;eural &lt;font color=&quot;#ff0000&quot;&gt;&lt;b&gt;N&lt;/b&gt;&lt;/font&gt;etworks&lt;/font&gt;" style="text;html=1;align=center;verticalAlign=middle;resizable=0;points=[];autosize=1;strokeColor=none;fontSize=45;" vertex="1" parent="1">
          <mxGeometry x="105" y="40" width="500" height="70" as="geometry" />
        </mxCell>
      </root>
    </mxGraphModel>
  </diagram>
</mxfile>
